<mxfile host="app.diagrams.net" agent="Mozilla/5.0 (X11; Linux x86_64; rv:130.0) Gecko/20100101 Firefox/130.0" version="24.7.12">
  <diagram id="prtHgNgQTEPvFCAcTncT" name="Page-1">
    <mxGraphModel dx="1434" dy="790" grid="1" gridSize="10" guides="1" tooltips="1" connect="1" arrows="1" fold="1" page="1" pageScale="1" pageWidth="827" pageHeight="1169" math="0" shadow="0">
      <root>
        <mxCell id="0" />
        <mxCell id="1" parent="0" />
        <mxCell id="Ll4tVGdGiQP8kRPqJixi-12" style="edgeStyle=orthogonalEdgeStyle;rounded=0;orthogonalLoop=1;jettySize=auto;html=1;entryX=0.5;entryY=0;entryDx=0;entryDy=0;fontSize=19;" edge="1" parent="1" source="Ll4tVGdGiQP8kRPqJixi-1" target="Ll4tVGdGiQP8kRPqJixi-9">
          <mxGeometry relative="1" as="geometry" />
        </mxCell>
        <mxCell id="Ll4tVGdGiQP8kRPqJixi-13" style="edgeStyle=orthogonalEdgeStyle;rounded=0;orthogonalLoop=1;jettySize=auto;html=1;entryX=0.5;entryY=0;entryDx=0;entryDy=0;fontSize=19;" edge="1" parent="1" source="Ll4tVGdGiQP8kRPqJixi-1" target="Ll4tVGdGiQP8kRPqJixi-11">
          <mxGeometry relative="1" as="geometry" />
        </mxCell>
        <mxCell id="Ll4tVGdGiQP8kRPqJixi-14" style="edgeStyle=orthogonalEdgeStyle;rounded=0;orthogonalLoop=1;jettySize=auto;html=1;entryX=0.5;entryY=0;entryDx=0;entryDy=0;fontSize=19;" edge="1" parent="1" source="Ll4tVGdGiQP8kRPqJixi-1" target="Ll4tVGdGiQP8kRPqJixi-10">
          <mxGeometry relative="1" as="geometry" />
        </mxCell>
        <mxCell id="Ll4tVGdGiQP8kRPqJixi-1" value="Task Ventilator" style="rounded=1;whiteSpace=wrap;html=1;fontSize=19;" vertex="1" parent="1">
          <mxGeometry x="354" y="170" width="120" height="60" as="geometry" />
        </mxCell>
        <mxCell id="Ll4tVGdGiQP8kRPqJixi-16" style="edgeStyle=orthogonalEdgeStyle;rounded=0;orthogonalLoop=1;jettySize=auto;html=1;entryX=0;entryY=0.5;entryDx=0;entryDy=0;fontSize=19;" edge="1" parent="1" source="Ll4tVGdGiQP8kRPqJixi-9" target="Ll4tVGdGiQP8kRPqJixi-15">
          <mxGeometry relative="1" as="geometry">
            <Array as="points">
              <mxPoint x="210" y="443" />
            </Array>
          </mxGeometry>
        </mxCell>
        <mxCell id="Ll4tVGdGiQP8kRPqJixi-9" value="Worker" style="rounded=1;whiteSpace=wrap;html=1;fontSize=19;" vertex="1" parent="1">
          <mxGeometry x="150" y="290" width="120" height="60" as="geometry" />
        </mxCell>
        <mxCell id="Ll4tVGdGiQP8kRPqJixi-18" style="edgeStyle=orthogonalEdgeStyle;rounded=0;orthogonalLoop=1;jettySize=auto;html=1;entryX=1;entryY=0.5;entryDx=0;entryDy=0;fontSize=19;" edge="1" parent="1" source="Ll4tVGdGiQP8kRPqJixi-10" target="Ll4tVGdGiQP8kRPqJixi-15">
          <mxGeometry relative="1" as="geometry">
            <Array as="points">
              <mxPoint x="620" y="443" />
            </Array>
          </mxGeometry>
        </mxCell>
        <mxCell id="Ll4tVGdGiQP8kRPqJixi-10" value="Worker" style="rounded=1;whiteSpace=wrap;html=1;fontSize=19;" vertex="1" parent="1">
          <mxGeometry x="560" y="290" width="120" height="60" as="geometry" />
        </mxCell>
        <mxCell id="Ll4tVGdGiQP8kRPqJixi-17" style="edgeStyle=orthogonalEdgeStyle;rounded=0;orthogonalLoop=1;jettySize=auto;html=1;entryX=0.5;entryY=0;entryDx=0;entryDy=0;fontSize=19;" edge="1" parent="1" source="Ll4tVGdGiQP8kRPqJixi-11" target="Ll4tVGdGiQP8kRPqJixi-15">
          <mxGeometry relative="1" as="geometry" />
        </mxCell>
        <mxCell id="Ll4tVGdGiQP8kRPqJixi-11" value="Worker" style="rounded=1;whiteSpace=wrap;html=1;fontSize=19;" vertex="1" parent="1">
          <mxGeometry x="354" y="290" width="120" height="60" as="geometry" />
        </mxCell>
        <mxCell id="Ll4tVGdGiQP8kRPqJixi-15" value="Sink" style="rounded=1;whiteSpace=wrap;html=1;fontSize=19;" vertex="1" parent="1">
          <mxGeometry x="354" y="413" width="120" height="60" as="geometry" />
        </mxCell>
      </root>
    </mxGraphModel>
  </diagram>
</mxfile>
